<svg width="58" height="82" viewBox="0 0 58 82" fill="none" xmlns="http://www.w3.org/2000/svg">
<path fill-rule="evenodd" clip-rule="evenodd" d="M36.9323 1.12866C36.6721 1.28826 35.2173 2.13198 33.6994 3.00361C32.1815 3.8754 25.0493 7.97381 17.8501 12.111C10.6509 16.2484 3.88999 20.1333 2.82596 20.7442C1.76177 21.355 0.926258 21.8899 0.969311 21.933C1.01221 21.9761 3.1163 23.1992 5.64508 24.6512L10.2426 27.2912L13.1791 25.6003C14.794 24.6703 18.3154 22.6455 21.0042 21.101C23.6931 19.5564 27.0285 17.6389 28.4163 16.8399C33.8707 13.6999 37.4062 11.6672 41.0326 9.58681C47.5547 5.84512 47.0129 6.19207 46.6843 5.96703C45.8579 5.40118 37.7764 0.833756 37.6054 0.836122C37.4955 0.837541 37.1925 0.969224 36.9323 1.12866ZM36.4592 13.4649C30.5611 16.8554 24.5999 20.2844 23.2121 21.085C21.8243 21.8855 18.472 23.8128 15.7626 25.3678L10.8362 28.1951L10.8343 33.5176C10.8332 36.4451 10.8596 38.8401 10.893 38.8401C10.9263 38.8401 11.9731 38.25 13.2191 37.529C16.4139 35.6798 20.9692 33.059 29.4414 28.1956C37.2072 23.7376 40.5173 21.8341 44.7387 19.3982L47.3408 17.8967L47.3823 12.598C47.4052 9.6838 47.3697 7.29947 47.3034 7.29979C47.2372 7.3001 42.3574 10.0743 36.4592 13.4649ZM48.5236 24.5234V30.1038L53.0317 32.6979C55.5111 34.1245 57.6047 35.3155 57.684 35.3443C57.7693 35.3755 57.8278 33.1248 57.8272 29.8247L57.8262 24.2525L53.3019 21.6504C50.8133 20.2192 48.7202 19.0246 48.6505 18.9958C48.5807 18.9667 48.5236 21.4544 48.5236 24.5234ZM43.3194 21.7441C41.281 22.919 38.3182 24.6264 36.7352 25.5383L33.8571 27.1964V32.5314V37.8663L34.6123 37.4465C35.0279 37.2155 38.0795 35.4667 41.3936 33.5601L47.4197 30.0936V24.8469C47.4197 20.7526 47.3763 19.601 47.2225 19.6042C47.1142 19.6062 45.3577 20.5692 43.3194 21.7441ZM0.230782 28.1946L0.187256 33.5034L1.05463 34.0237C3.3877 35.423 9.42809 38.8401 9.56876 38.8401C9.67332 38.8401 9.72836 37.0242 9.72836 33.5798V28.3192L5.50977 25.9C3.18947 24.5695 1.06236 23.3468 0.782747 23.1833L0.274466 22.8857L0.230782 28.1946ZM31.6492 28.5091C31.1722 28.7876 26.2933 31.5941 20.8071 34.7458L10.8323 40.4763V45.7298C10.8323 49.2617 10.8861 50.9834 10.9963 50.9834C11.0865 50.9834 13.0912 49.873 15.4514 48.5158C17.8115 47.1587 22.5813 44.4174 26.0507 42.4241C29.5202 40.4308 32.4477 38.7293 32.556 38.643C32.7771 38.467 32.8538 28.191 32.6349 28.069C32.5698 28.0327 32.1263 28.2308 31.6492 28.5091ZM39.2952 36.0447C35.0435 38.493 30.201 41.2767 28.5341 42.2308L25.5032 43.9655L25.501 49.2881C25.4997 52.2155 25.528 54.6106 25.5636 54.6106C25.6207 54.6106 28.7956 52.7922 38.5094 47.1963C39.9839 46.3469 42.5387 44.8777 44.1867 43.9315L47.1831 42.2112L47.2246 36.8985C47.2474 33.9764 47.212 31.5875 47.1457 31.5895C47.0795 31.5917 43.5468 33.5965 39.2952 36.0447ZM48.5236 36.8496C48.5236 40.872 48.5701 42.1502 48.7207 42.2699C48.8292 42.3558 50.8694 43.5442 53.2547 44.9105C55.64 46.2767 57.6447 47.4256 57.7099 47.4636C57.775 47.5014 57.8281 45.1259 57.8281 42.1844V36.8364L53.2574 34.2111C50.7436 32.7671 48.6501 31.5858 48.6051 31.5858C48.5603 31.5858 48.5236 33.9545 48.5236 36.8496ZM0.268001 40.3647L0.269736 45.7003L4.17118 47.9375C6.3169 49.1679 8.40964 50.3626 8.82156 50.5924L9.57065 51.0103V45.6705V40.3305L5.05416 37.7323C2.57001 36.3033 0.476485 35.1104 0.401891 35.0816C0.327139 35.0526 0.266897 37.43 0.268001 40.3647ZM42.1366 46.6766C39.361 48.2835 33.7191 51.5345 29.5991 53.9014C25.4791 56.2682 19.5888 59.6522 16.5096 61.4217L10.9111 64.6387L10.8697 69.9542C10.8468 72.8778 10.8728 75.2698 10.9274 75.2698C11.0269 75.2698 13.2497 73.9997 27.6278 65.7265C31.8779 63.281 37.8036 59.8787 40.7961 58.1657C43.7885 56.4529 46.5031 54.8802 46.8283 54.671L47.4197 54.2907V49.0099C47.4197 46.1054 47.3665 43.7348 47.3014 43.7421C47.2363 43.7492 44.9122 45.0698 42.1366 46.6766ZM48.5245 49.0515L48.5255 54.374L53.2557 57.0868L57.9858 59.7998V54.4592V49.1185L56.6848 48.3663C51.3355 45.2732 48.6384 43.729 48.5856 43.729C48.5515 43.729 48.5241 46.1242 48.5245 49.0515ZM22.6601 45.6434C21.9228 46.0761 18.9599 47.7845 16.076 49.4399L10.8323 52.4495V57.8031V63.1566L11.5025 62.7683C12.6973 62.0761 22.5538 56.4198 23.4881 55.89L24.3948 55.3759V50.1045C24.3948 45.986 24.3518 44.8354 24.1977 44.8447C24.0894 44.8512 23.3974 45.2106 22.6601 45.6434ZM0.266108 52.8403V58.4822L4.7826 61.0804C7.26675 62.5093 9.36122 63.7025 9.43692 63.7319C9.51435 63.7617 9.55646 61.2865 9.53328 58.0807L9.4918 52.3764L4.99723 49.7907C2.52522 48.3685 0.44936 47.2035 0.384386 47.2018C0.319412 47.1999 0.266108 49.7374 0.266108 52.8403ZM45.9868 56.4185C38.9019 60.5147 12.5131 75.6789 12.0277 75.9331L11.5672 76.1741L13.0528 77.0408C16.2236 78.8907 20.92 81.578 20.9823 81.578C21.04 81.578 24.0782 79.839 32.6743 74.8855C34.0621 74.0858 36.5814 72.6363 38.2728 71.6644C53.3739 62.9866 57.0868 60.8186 57.0806 60.6822C57.0745 60.5502 54.1661 58.8244 48.9831 55.8773L47.9445 55.2866L45.9868 56.4185Z" fill="#CDCDCD"/>
</svg>
