<svg width="61" height="68" viewBox="0 0 61 68" fill="none" xmlns="http://www.w3.org/2000/svg">
<path d="M30.5656 0.564636C28.9755 0.564636 27.4505 1.19629 26.3262 2.32064C25.2018 3.44499 24.5702 4.96993 24.5702 6.56C24.5702 8.15007 25.2018 9.67501 26.3262 10.7994C27.4505 11.9237 28.9755 12.5554 30.5656 12.5554C32.1556 12.5554 33.6806 11.9237 34.8049 10.7994C35.9293 9.67501 36.5609 8.15007 36.5609 6.56C36.5609 4.96993 35.9293 3.44499 34.8049 2.32064C33.6806 1.19629 32.1556 0.564636 30.5656 0.564636V0.564636ZM54.5078 14.3889C52.9177 14.3889 51.3927 15.0205 50.2684 16.1449C49.144 17.2692 48.5124 18.7942 48.5124 20.3842C48.5124 21.9743 49.144 23.4993 50.2684 24.6236C51.3927 25.748 52.9177 26.3796 54.5078 26.3796C56.0978 26.3796 57.6228 25.748 58.7471 24.6236C59.8715 23.4993 60.5031 21.9743 60.5031 20.3842C60.5031 18.7942 59.8715 17.2692 58.7471 16.1449C57.6228 15.0205 56.0978 14.3889 54.5078 14.3889ZM54.5078 42.0374C52.9177 42.0374 51.3927 42.669 50.2684 43.7934C49.144 44.9177 48.5124 46.4427 48.5124 48.0327C48.5124 49.6228 49.144 51.1477 50.2684 52.2721C51.3927 53.3964 52.9177 54.0281 54.5078 54.0281C56.0978 54.0281 57.6228 53.3964 58.7471 52.2721C59.8715 51.1477 60.5031 49.6228 60.5031 48.0327C60.5031 46.4427 59.8715 44.9177 58.7471 43.7934C57.6228 42.669 56.0978 42.0374 54.5078 42.0374ZM30.5656 55.8616C28.9759 55.8616 27.4513 56.4931 26.3272 57.6172C25.2031 58.7413 24.5716 60.2659 24.5716 61.8556C24.5716 63.4453 25.2031 64.9698 26.3272 66.0939C27.4513 67.218 28.9759 67.8495 30.5656 67.8495C32.1553 67.8495 33.6798 67.218 34.8039 66.0939C35.928 64.9698 36.5595 63.4453 36.5595 61.8556C36.5595 60.2659 35.928 58.7413 34.8039 57.6172C33.6798 56.4931 32.1553 55.8616 30.5656 55.8616ZM6.61774 42.0402C5.8306 42.0402 5.05117 42.1952 4.32395 42.4964C3.59673 42.7977 2.93596 43.2392 2.37937 43.7958C1.82278 44.3523 1.38127 45.0131 1.08004 45.7403C0.778816 46.4676 0.623777 47.247 0.623777 48.0341C0.623777 48.8213 0.778816 49.6007 1.08004 50.3279C1.38127 51.0551 1.82278 51.7159 2.37937 52.2725C2.93596 52.8291 3.59673 53.2706 4.32395 53.5718C5.05117 53.8731 5.8306 54.0281 6.61774 54.0281C8.20781 54.0281 9.73275 53.3964 10.8571 52.2721C11.9815 51.1477 12.6131 49.6228 12.6131 48.0327C12.6131 46.4427 11.9815 44.9177 10.8571 43.7934C9.73275 42.669 8.20781 42.0374 6.61774 42.0374V42.0402ZM6.61774 14.3889C5.02767 14.3889 3.50273 15.0205 2.37838 16.1449C1.25403 17.2692 0.622375 18.7942 0.622375 20.3842C0.622375 21.9743 1.25403 23.4993 2.37838 24.6236C3.50273 25.748 5.02767 26.3796 6.61774 26.3796C8.20781 26.3796 9.73275 25.748 10.8571 24.6236C11.9815 23.4993 12.6131 21.9743 12.6131 20.3842C12.6131 18.7942 11.9815 17.2692 10.8571 16.1449C9.73275 15.0205 8.20781 14.3889 6.61774 14.3889ZM30.5656 4.91853L5.19635 19.5642V48.8556L30.5656 63.5012L55.9291 48.8556V19.5642L30.5656 4.91853ZM30.5656 9.40699L52.0406 46.6099H9.08485L30.5656 9.40699ZM26.677 10.4471L8.04754 42.7214V21.2071L26.677 10.4471ZM34.4541 10.4471L53.0864 21.2071V42.7214L34.4541 10.4471ZM11.9304 49.4583H49.1979L30.5656 60.2127L11.9304 49.4583Z" fill="#CDCDCD"/>
</svg>
