<svg width="79" height="68" viewBox="0 0 79 68" fill="none" xmlns="http://www.w3.org/2000/svg">
<path d="M65.7879 46.5109C66.1162 46.3221 66.3892 46.0503 66.5793 45.7227C66.7698 45.3946 66.8705 45.0221 66.8712 44.6426L66.9101 32.1296C66.9109 31.7501 67.0116 31.3776 67.202 31.0495C67.3931 30.7215 67.6672 30.4497 67.9967 30.2613L74.7754 26.3595C75.1042 26.1715 75.4767 26.073 75.8555 26.0741C76.2349 26.075 76.6073 26.1757 76.9355 26.366C77.2638 26.5549 77.5367 26.8267 77.7269 27.1542C77.9163 27.4826 78.0158 27.8551 78.0156 28.2342V50.9835C78.0153 51.3639 77.9147 51.7376 77.7239 52.0667C77.5332 52.3958 77.259 52.6689 76.929 52.8582L51.3288 67.5639C51.0019 67.751 50.6318 67.8495 50.2552 67.8495C49.8786 67.8495 49.5085 67.751 49.1816 67.5639L29.0919 56.0757C28.7609 55.8868 28.4856 55.6138 28.294 55.2843C28.1026 54.9542 28.0019 54.5793 28.0021 54.1977V42.7258C28.0021 42.7128 28.0151 42.7063 28.0281 42.7128C28.0411 42.7193 28.054 42.7128 28.054 42.6966V42.6836C28.054 42.6739 28.0605 42.6674 28.067 42.6609L44.6149 33.1577C44.6279 33.148 44.6214 33.1253 44.6052 33.1253C44.6027 33.1253 44.6002 33.1247 44.5979 33.1236C44.5957 33.1224 44.5937 33.1208 44.5922 33.1188C44.5908 33.117 44.5897 33.1149 44.5892 33.1127C44.5886 33.1104 44.5885 33.1081 44.589 33.1058L44.6214 21.8609C44.6229 21.48 44.5238 21.1055 44.3342 20.7752C44.1445 20.4448 43.871 20.1705 43.5413 19.9797C43.2125 19.7899 42.8394 19.6899 42.4597 19.6899C42.0799 19.6899 41.7069 19.7899 41.378 19.9797L29.0822 27.0698C28.7541 27.2585 28.3822 27.3578 28.0038 27.3578C27.6253 27.3578 27.2534 27.2585 26.9253 27.0698L14.5874 19.9668C14.2588 19.7782 13.8864 19.6792 13.5076 19.6797C13.1287 19.6802 12.7566 19.7802 12.4286 19.9697C12.1005 20.1592 11.8279 20.4315 11.6382 20.7594C11.4484 21.0873 11.3481 21.4593 11.3472 21.8382V42.1647C11.3473 42.5436 11.2479 42.9159 11.059 43.2443C10.87 43.5728 10.5981 43.8458 10.2704 44.0361C9.94321 44.226 9.57188 44.3267 9.19358 44.328C8.81478 44.3291 8.44234 44.2307 8.11352 44.0426L1.26667 40.1278C0.935642 39.9389 0.660395 39.6659 0.468792 39.3364C0.276813 39.0054 0.176085 38.6293 0.176885 38.2466L0.238509 2.72152C0.239686 2.34313 0.340086 1.97167 0.52969 1.64422C0.719293 1.31676 0.991468 1.04477 1.31905 0.855374C1.64662 0.665982 2.01815 0.565823 2.39653 0.564892C2.77492 0.563961 3.14693 0.662291 3.47544 0.850068L26.9253 14.32C27.2534 14.5086 27.6253 14.6079 28.0038 14.6079C28.3822 14.6079 28.7541 14.5086 29.0822 14.32L52.5256 0.850068C52.8544 0.661869 53.2268 0.563437 53.6057 0.564647C53.9851 0.565409 54.3576 0.666089 54.6857 0.856555C55.0144 1.04637 55.2873 1.3193 55.4771 1.64795C55.6652 1.97677 55.7636 2.34921 55.7625 2.728V38.2628C55.7625 38.6423 55.6652 39.0153 55.4739 39.3461C55.2831 39.6752 55.0091 39.9482 54.6792 40.1375L42.4029 47.2082C42.0726 47.3984 41.7985 47.6726 41.6083 48.0028C41.4184 48.3322 41.3188 48.7059 41.3196 49.0861C41.3199 49.4666 41.4206 49.8403 41.6115 50.1694C41.8039 50.4994 42.0803 50.7725 42.4126 50.9608L49.1849 54.8172C49.5113 55.0021 49.8801 55.0993 50.2552 55.0994C50.6332 55.0989 51.0045 54.9994 51.332 54.8107L65.7879 46.5076V46.5109ZM67.2085 14.6346C67.2082 15.0162 67.3089 15.3911 67.5004 15.7211C67.6937 16.0515 67.9713 16.3246 68.3048 16.5125C68.6371 16.7003 69.0132 16.7968 69.3948 16.7922C69.7765 16.7877 70.1502 16.6822 70.4779 16.4866L76.968 12.5945C77.288 12.4026 77.5528 12.131 77.7367 11.8063C77.9214 11.481 78.0186 11.1133 78.0188 10.7392V2.81233C78.0181 2.43045 77.9162 2.05557 77.7237 1.72579C77.5306 1.39598 77.2537 1.1232 76.9209 0.935192C76.5882 0.747186 76.2117 0.65067 75.8295 0.655463C75.4479 0.659743 75.0741 0.764929 74.7462 0.960344L68.2594 4.85244C67.9382 5.04391 67.6722 5.31549 67.4875 5.64059C67.304 5.96627 67.2079 6.33387 67.2085 6.70767V14.6378V14.6346Z" fill="#CDCDCD"/>
</svg>
