<svg width="156" height="68" viewBox="0 0 156 68" fill="none" xmlns="http://www.w3.org/2000/svg">
<path d="M105.001 0.564636L104.519 3.07594C103.774 7.8352 104.044 9.19683 106.086 10.9631L108.058 12.5945L106.016 21.702C104.795 27.1356 103.299 31.6894 102.348 33.1859C101.532 34.4768 100.582 36.378 100.376 37.3992C100.036 38.6195 98.8799 39.8463 97.1136 40.9317C95.5529 41.8181 92.4892 44.1945 90.3183 46.102C88.5842 47.6628 87.3896 48.6198 86.7409 49.0308L84.6213 50.7072C83.9405 51.799 83.5552 52.6789 83.4074 53.3469C83.2597 54.0341 83.3432 54.4902 83.5616 54.8242C83.7735 55.1453 84.1396 55.3701 84.6406 55.5114C85.2337 55.6504 85.8441 55.7002 86.4518 55.6591C87.8267 55.5652 89.1876 55.324 90.511 54.9398C90.9606 54.8177 91.3139 54.7021 91.6222 54.5994C92.0974 54.0149 93.1957 52.9102 95.1418 50.9898C100.306 45.8965 102.278 43.109 100.242 43.8605C99.49 44.1302 99.8304 43.4494 101.121 42.0878C103.845 39.4352 105.405 35.4274 108.668 22.8581C111.25 12.9349 111.25 12.7936 113.151 12.7936C114.044 12.7936 116.568 12.9477 116.568 12.9477V0.564636H110.775H105.001ZM129.658 20.8927C129.247 20.8927 128.566 21.5093 128.161 22.1901C127.416 23.4104 128.296 24.1554 139.51 31.1563C146.171 35.376 151.54 38.9728 151.405 39.2489C151.27 39.4481 145.83 42.987 139.311 47.0655C127.48 54.4002 127.416 54.4709 128.502 55.9674C129.863 57.7337 128.502 58.3438 143.859 48.7611L155.008 41.6254V36.2559L142.568 28.5743C135.843 24.361 129.998 20.9633 129.658 20.8927ZM26.3476 21.6441C26.0072 21.6441 20.1625 25.1124 13.4378 29.2551L0.862061 36.9368V42.3062L13.3672 50.1227C20.3038 54.4002 26.1485 57.9392 26.4182 57.9392C26.688 57.9392 27.2339 57.3226 27.7799 56.5776C28.5956 55.2866 27.9083 54.7407 16.4244 47.4701C5.48645 40.6041 4.33035 39.6536 5.42222 38.9085C6.10304 38.4333 11.2669 35.2347 16.8419 31.7729C29.5526 23.9563 28.8717 24.4959 27.8505 22.8645C27.4459 22.1901 26.7586 21.5799 26.354 21.6441H26.3476ZM82.1229 21.7919C80.2474 21.779 76.2139 24.6372 64.1391 34.4961C63.6189 35.7357 63.5739 36.5899 63.8116 37.1423C63.9657 37.5212 64.2483 37.7846 64.6401 37.9772C65.0255 38.1699 65.5265 38.2855 66.0788 38.3305C67.1771 38.4268 68.4745 38.2534 69.5214 38.0479L70.2279 37.8873C70.4698 37.563 70.7873 37.3028 71.1528 37.1294C71.8978 36.7184 75.0257 33.8667 78.1536 30.8094C83.6579 25.2345 84.9489 22.7167 82.7074 21.9011C82.5235 21.8279 82.3272 21.7908 82.1293 21.7919H82.1229ZM96.2273 25.6648C94.5766 25.7098 91.6029 27.6237 86.5096 31.6894C83.9534 33.7639 82.3348 34.8815 81.4678 35.1127L78.1022 37.7717C76.837 40.0839 76.6507 41.5162 76.9847 42.3062C77.0683 42.5011 77.1896 42.6774 77.3418 42.8252C77.4939 42.9729 77.6738 43.089 77.871 43.1668C78.3617 43.3606 78.8849 43.4587 79.4125 43.4559C80.6731 43.4424 81.9262 43.2588 83.1377 42.9099C83.7691 42.7405 84.3927 42.5433 85.0067 42.319L85.193 42.242L85.5334 42.0621C86.1757 41.2336 87.6529 39.6729 89.5026 37.8745C95.3474 32.2353 98.3339 28.2275 97.7238 26.731C97.4476 26.0052 96.9723 25.6391 96.2273 25.6648ZM80.6585 32.6014C80.1832 32.6528 79.117 33.4749 77.1966 35.1576C74.422 37.6111 71.3969 39.0242 70.35 38.3947C70.1067 38.4497 69.8626 38.5011 69.6178 38.5489C68.5516 38.7608 67.2221 38.9342 66.0339 38.8379C65.474 38.804 64.9253 38.6668 64.4153 38.4333C63.9343 38.2134 63.5505 37.8249 63.3363 37.3414C63.0987 36.7633 63.0987 36.044 63.3684 35.1255L59.1936 38.5553L49.7457 46.3718V59.0439L80.7035 34.6567C80.6974 34.3896 80.7321 34.1233 80.8062 33.8667C81.0439 33.006 81.031 32.5693 80.6585 32.6078V32.6014ZM93.9793 36.7055C93.5105 36.7055 92.7269 37.3671 91.4744 38.6966C89.7724 40.5142 87.0941 42.2741 85.6747 42.6337L85.4563 42.7494C85.2233 42.8456 84.9877 42.9355 84.7498 43.0191C84.3644 43.1476 83.8635 43.3017 83.2854 43.4559C82.1293 43.7706 80.6906 44.0596 79.4061 44.0275C78.8005 44.0267 78.2007 43.9089 77.6398 43.6807C77.1111 43.4627 76.6875 43.0483 76.458 42.5246C76.0855 41.6318 76.2332 40.3794 77.0489 38.6003L49.7393 60.1101V67.8495H61.737L87.184 47.8619C87.8456 47.1297 88.8411 46.1277 90.1835 44.8753C93.7802 41.5419 94.5959 40.3922 94.5959 38.6902C94.5959 37.3671 94.4482 36.6991 93.9793 36.6991V36.7055ZM100.036 49.2299L97.8587 51.4008C96.6383 52.5569 94.461 53.9828 92.9709 54.5929L92.6755 54.7214L92.6562 54.7535L92.592 54.8177C92.5342 54.8627 92.5085 54.8691 92.4635 54.8884C91.8687 55.1135 91.2644 55.3128 90.6523 55.4857C89.2914 55.8818 87.8917 56.1295 86.4775 56.2243C85.8089 56.2672 85.1376 56.2087 84.4865 56.0509C83.9214 55.9265 83.4225 55.597 83.0863 55.126C82.778 54.6507 82.6881 54.0149 82.8615 53.2313C82.9994 52.6734 83.2043 52.1343 83.4717 51.6256L62.9381 67.8495H90.2477L93.5105 64.1115C97.9935 58.8833 100.036 55.1453 100.036 51.9468V49.2299Z" fill="#CDCDCD"/>
</svg>
